# xmcd CD database file
#
# Track frame offsets:
#	150
#	15607
#	54944
#	83407
#	104547
#	128759
#	143739
#	164739
#	188109
#	201590
#	228608
#	241433
#
# Disc length: 3705 seconds
#
# Revision: 0
# Processed by: cddbd v1.5.2PL0 Copyright (c) Steve Scherf et al.
# Submitted via: CDex 1.95
#
DISCID=a30e770c
DTITLE=Various Artist - Let's Do It: 60 Years of Verve Records - Disc 1
DYEAR=2016
DGENRE=Jazz
TTITLE0=Oscar Peterson - C Jam Blues
TTITLE1=Louis Armstrong - Let's Do It
TTITLE2=Stan Getz and Dizzy Gillespie - I Let A Song Go Out Of My Heart
TTITLE3=Diana Krall - The Look of Love
TTITLE4=Getz/Giberto - Girl From Ipanema
TTITLE5=Kenny Burrell - Loie
TTITLE6=Ella Fitzgerald and Louis Armstrong - They Can't Take That Away From Me
TTITLE7=John Scofield - Green Tea
TTITLE8=Johnny Hodges - In A Sentimental Mood
TTITLE9=Stan Getz and Gerry Mulligan - That Old Feeling
TTITLE10=Bill Henderson and Oscar Peterson - The Lamp Is Low
TTITLE11=Ben Webster - Soulville
EXTD=YEAR: 2016
EXTT0=
EXTT1=
EXTT2=
EXTT3=
EXTT4=
EXTT5=
EXTT6=
EXTT7=
EXTT8=
EXTT9=
EXTT10=
EXTT11=
PLAYORDER=
